PathFileType	4	(X/Y/Z)	Kaydara	
DataRate	CameraRate	NumFrames	NumMarkers	Units	OrigDataRate	OrigDataStartFrame	OrigNumFrames	
120.00	120.00	4	72	mm	120.00	33	261	
Frame#	Time	Hips			RightUpLeg			RightLeg			RightFoot			RightFoot_End			LeftUpLeg			LeftLeg			LeftFoot			LeftFoot_End			Spine			Spine1			Spine2			Spine3			Neck			Head			Head_End			RightShoulder			RightArm			RightForeArm			RightHand			RightHandThumb1			RightHandThumb2			RightHandThumb3			RightHandThumb3_End			RightInHandIndex			RightHandIndex1			RightHandIndex2			RightHandIndex3			RightHandIndex3_End			RightInHandMiddle			RightHandMiddle1			RightHandMiddle2			RightHandMiddle3			RightHandMiddle3_End			RightInHandRing			RightHandRing1			RightHandRing2			RightHandRing3			RightHandRing3_End			RightInHandPinky			RightHandPinky1			RightHandPinky2			RightHandPinky3			RightHandPinky3_End			LeftShoulder			LeftArm			LeftForeArm			LeftHand			LeftHandThumb1			LeftHandThumb2			LeftHandThumb3			LeftHandThumb3_End			LeftInHandIndex			LeftHandIndex1			LeftHandIndex2			LeftHandIndex3			LeftHandIndex3_End			LeftInHandMiddle			LeftHandMiddle1			LeftHandMiddle2			LeftHandMiddle3			LeftHandMiddle3_End			LeftInHandRing			LeftHandRing1			LeftHandRing2			LeftHandRing3			LeftHandRing3_End			LeftInHandPinky			LeftHandPinky1			LeftHandPinky2			LeftHandPinky3			LeftHandPinky3_End			
		X1	Y1	Z1	X2	Y2	Z2	X3	Y3	Z3	X4	Y4	Z4	X5	Y5	Z5	X6	Y6	Z6	X7	Y7	Z7	X8	Y8	Z8	X9	Y9	Z9	X10	Y10	Z10	X11	Y11	Z11	X12	Y12	Z12	X13	Y13	Z13	X14	Y14	Z14	X15	Y15	Z15	X16	Y16	Z16	X17	Y17	Z17	X18	Y18	Z18	X19	Y19	Z19	X20	Y20	Z20	X21	Y21	Z21	X22	Y22	Z22	X23	Y23	Z23	X24	Y24	Z24	X25	Y25	Z25	X26	Y26	Z26	X27	Y27	Z27	X28	Y28	Z28	X29	Y29	Z29	X30	Y30	Z30	X31	Y31	Z31	X32	Y32	Z32	X33	Y33	Z33	X34	Y34	Z34	X35	Y35	Z35	X36	Y36	Z36	X37	Y37	Z37	X38	Y38	Z38	X39	Y39	Z39	X40	Y40	Z40	X41	Y41	Z41	X42	Y42	Z42	X43	Y43	Z43	X44	Y44	Z44	X45	Y45	Z45	X46	Y46	Z46	X47	Y47	Z47	X48	Y48	Z48	X49	Y49	Z49	X50	Y50	Z50	X51	Y51	Z51	X52	Y52	Z52	X53	Y53	Z53	X54	Y54	Z54	X55	Y55	Z55	X56	Y56	Z56	X57	Y57	Z57	X58	Y58	Z58	X59	Y59	Z59	X60	Y60	Z60	X61	Y61	Z61	X62	Y62	Z62	X63	Y63	Z63	X64	Y64	Z64	X65	Y65	Z65	X66	Y66	Z66	X67	Y67	Z67	X68	Y68	Z68	X69	Y69	Z69	X70	Y70	Z70	X71	Y71	Z71	X72	Y72	Z72	

33	0.267	1081.203	893.81699	129.612	1160.41503639904	896.1968539688526	82.30288381151357	1064.699269950288	497.03160894551183	0.18394279819645407	1038.321669245544	107.826838864055	-30.78564751526815	924.6509365253409	35.53475774043455	105.87153184111587	1016.228203263592	866.3128699155603	190.44191403791817	915.0675986874601	474.7075894373356	298.7467789608332	809.8486578962171	69.36963954602875	432.12559863071317	662.3728361965104	11.90379460615907	326.9934537694743	1015.8578175925535	1010.4604899480621	79.36711907998804	954.1396399201809	1067.9029182792676	31.665320738606617	885.9074430286796	1120.934315078156	-20.37668689243384	815.4375553091278	1160.3978775007865	-73.64419825616027	739.0212813676349	1204.2731196364336	-127.94814578219372	664.13689500173	1240.2388769360803	-172.4772560379077	525.5284775074585	1318.6363112373097	-181.5674779290984	784.0673807207725	1196.7438057984687	-129.2137798332838	847.9080834438978	1205.6689033871753	-210.9432085260902	909.729691034924	986.1083222631513	-241.63693517016117	1021.0940180070367	829.9013905389833	-284.63146192505235	1017.5664511233317	827.0435592751161	-305.6328627999224	1006.628660211448	815.4362474051344	-317.76795269392045	1001.1608592101846	805.0576701181187	-324.226202055661	998.441242651845	794.4419703841353	-327.9055281132116	1026.414580254685	818.5737876033639	-300.99358234793584	1036.1629709812762	792.6605812773431	-316.1102279439416	1035.1097866354964	774.5191869746342	-323.54837577067497	1027.6459999948095	767.0616704995564	-326.93136903947834	1016.8753353168535	763.4664541664083	-328.8941794574193	1031.5484595516125	813.2278591418279	-294.9013503001667	1043.835902307517	785.061307536523	-306.35125554782815	1043.322663742295	764.643971981474	-313.61101115648637	1034.6230571522512	755.3485416524452	-317.2813422348311	1022.9863514465883	751.2697584478628	-319.22914509592675	1035.0223510791143	810.0931604944446	-290.23270270042576	1049.3295432709947	782.0734005292644	-296.50362078242813	1049.5118373744829	763.6869721595849	-301.9372983183651	1041.454730468527	754.4071574952271	-305.00287432837445	1030.6717270286465	750.4234562038467	-306.60932999131415	1037.9909331030742	807.3811321998438	-284.24631942351107	1053.2673509506494	779.937302597001	-286.3836358862922	1054.3325180548238	764.4150589568239	-289.31254834068426	1048.9002761151116	757.2597828708782	-290.86064246571704	1039.6041818896556	753.5084168594141	-291.88777156217935	744.5253769666117	1181.1335733493013	-90.74052909690286	699.4443610670052	1108.5535720626945	-19.551672376645616	870.1864754147848	978.7847611886272	-120.19270682867007	1029.556477749525	867.6718859957826	-216.4759223818724	1033.8541063799353	873.2093387824734	-237.92617536355783	1058.549699845194	873.3495927285855	-245.84296017016328	1078.1131202370962	870.7459916512743	-249.63464720707037	1096.4458327674515	866.2646152446124	-251.32286174984006	1041.5648303559933	863.7182289894973	-234.88377583095786	1073.7277183013616	849.0244332431796	-251.60275926066566	1102.3216456181863	840.4859456571866	-257.03645982085135	1119.085545364394	839.4441468468681	-257.1158311410565	1132.277777387389	841.4597999664192	-254.95643087019891	1047.1741408366047	856.9628054235815	-229.32474088867912	1081.577159138418	838.9764299519362	-242.62681932006953	1113.4223923808531	828.8176403517093	-247.76058388289638	1133.9562488696213	827.1569166824437	-247.4746164608366	1148.541060620505	829.1660852992005	-244.9262520634683	1050.2751573217624	852.5273525792207	-225.02567656332667	1083.6784725769642	832.4473374931999	-233.37612472351776	1112.0389242775707	822.7614702010678	-237.0161010816215	1132.1662325323362	820.718038034641	-236.2970159441283	1146.0316354425877	822.3979382299902	-233.69086370869613	1053.2421032662496	848.138021262914	-219.1528334757675	1085.5806348769438	826.8834619753083	-223.38130717896374	1109.087627412638	817.9180928595295	-224.95712395915444	1124.154103222835	815.8426392036372	-223.78492604057286	1136.6584744879158	816.9940971523055	-221.1035456285403
34	0.275	1081.203	893.81699	129.612	1160.8025876588576	896.40893754111	82.55109031141039	1064.7237381135824	497.25293481953383	0.7798051251896015	1038.1646762521693	107.86511025018913	-29.542833693033813	924.3568924614171	35.69220059163891	107.14962961107688	1015.8123616685511	866.0896184535064	190.20271721894366	914.5750556914295	474.54772968367587	298.66657683990104	809.1073163309176	69.53063721496576	432.93002898608347	661.6550942510021	12.302357783580712	327.6310965837965	1015.9287510137236	1010.497603554972	79.35151215200388	954.2732025681518	1067.9976558183612	31.637138414932085	886.1203428464592	1121.1065511352	-20.4320341448975	815.7603503842531	1160.6845921226793	-73.766232479838	739.4458620755157	1204.6761468407803	-128.12400453538947	664.5704034332009	1240.6868497186592	-172.63872002855763	525.9577763645931	1319.0765101366503	-181.7571152601271	784.6233047645343	1197.4148829199864	-129.27885006799252	849.146015961496	1207.4518733554357	-210.89507246106473	911.9710698460921	987.9325862204461	-243.19697783720918	1025.2974983792194	832.9149862578332	-287.7399072312033	1022.0140551226424	830.389494130023	-308.7972942379492	1011.2546813424043	818.9954224593067	-321.28816323054565	1005.9070467667194	808.7438650026968	-328.02098653674506	1003.2840916885003	798.2156862327789	-331.95214109755864	1030.879614956407	821.8838005124929	-304.23915976349525	1040.9704216448813	796.2981872335911	-319.7517837466968	1040.1035874447446	778.3283072922425	-327.57275646018894	1032.7039152555358	770.9385104943881	-331.20007654804533	1021.9514182226478	767.3730978724141	-333.36937185188526	1035.9879669297932	816.4653756419967	-298.2111428569479	1048.5955891482074	788.5791565445916	-310.0819834549085	1048.2811549911612	768.3382812030273	-317.76680747744285	1039.6567196017616	759.1194191015284	-321.73541713101963	1028.038827853721	755.070743211286	-323.91086115141366	1039.4356480516547	813.2716018895579	-293.5769337834137	1054.0087119257707	785.4532450662733	-300.2525310759152	1054.359120671969	767.2092387509334	-306.0635279398238	1046.3717835216407	757.9972325289424	-309.4204528533808	1035.6051713192571	754.0389780357766	-311.2426668248327	1042.3596220155407	810.4780714930889	-287.62533172307946	1057.8544125049996	783.1704895203695	-290.15260298018444	1059.0449905483142	767.7436531968981	-293.39255670942805	1053.6591881916434	760.6288283590139	-295.1574664248627	1044.3750580622143	756.8948098112661	-296.3782023072294	744.7560753785032	1181.1861147250395	-91.00886952822829	699.1395337898932	1107.8615894060326	-20.333346584985826	871.1732511422152	979.5809573303619	-121.89830619740252	1030.9099206190035	868.8768879977063	-217.7120696856428	1035.3533210696305	874.6176515310143	-238.99363083798764	1060.161779893136	874.8405015774024	-246.68147421918775	1079.8053077241125	872.2858442072211	-250.33768401362116	1098.2060919282783	867.8379317528938	-251.93344776997608	1043.0894238839169	865.127472888768	-236.03332419582972	1075.4909837306009	850.6576620692887	-252.65815189638778	1104.2158477678606	842.2055473252983	-257.9638339760354	1121.0221113781777	841.1689116484176	-257.91711679595676	1134.2230593822153	843.1560916728188	-255.6219678366063	1048.6928661922361	858.3376289435439	-230.53975057827728	1083.3255104141224	840.5511224162977	-243.78541981205927	1115.312032295732	830.4812347210476	-248.78835719183684	1135.8962321970832	828.8241605405474	-248.35451650659158	1150.4902232669044	830.8009206794617	-245.65969814225696	1051.784063754151	853.8728359202479	-226.29011671558303	1085.3858540510137	833.9485061720467	-234.63517178298702	1113.8674632497805	824.3343273329854	-238.17026317883807	1134.0422697256638	822.2913373014417	-237.31339403491052	1147.9158005270483	823.9393125645183	-234.57184089805776	1054.7295114626384	849.4377293644953	-220.470882091145	1087.238303677926	828.3001480325008	-224.73002135860543	1110.8383350617196	819.3824591541282	-226.23612828759764	1125.937526023142	817.302619885254	-224.97033739477246	1138.4479941854715	818.4230871820153	-222.17298980396365
35	0.283	1081.203	893.81699	129.612	1161.1772755410298	896.6264243390118	82.78915606595349	1064.752632193521	497.47853370256576	1.3537573739353552	1038.0121833576484	107.90999786250846	-28.309865655753388	924.0634156692762	35.89129824908921	108.43279849116199	1015.412428752561	865.8607620784417	189.96990706088553	914.1023601613863	474.38272203927534	298.59835339241283	808.4138417123268	69.68195057338013	433.75004541753657	660.8669395667796	12.942505646008673	328.3038322389453	1015.9876237920457	1010.5349759201351	79.35245043309962	954.3883145159554	1068.057933681293	31.589181307221065	886.2921984786065	1121.1863824624409	-20.540643398972836	815.9840606057452	1160.7775409723774	-73.94297888503613	739.7156857745538	1204.7803534718837	-128.36593847343224	664.7968860617023	1240.7391314764238	-172.87391642852907	526.1740623428562	1319.10701511007	-182.0679450096595	784.9494431193739	1197.6196814376367	-129.45811448248676	850.0747630988143	1208.6530650143768	-210.93993145203504	913.8649480568259	989.139543609095	-244.8520730593783	1029.023575034198	835.2570380695224	-290.88471712488905	1025.9704758863936	833.0544837551839	-311.9948378677484	1015.380458035841	821.8700475910638	-324.8285546628406	1010.1474797872783	811.7437838107671	-331.82664536767163	1007.6173257871181	801.3023515921028	-336.0016241031827	1034.8547541220616	824.5142968147627	-307.5173129378499	1045.2738552419928	799.249075481673	-323.41545839169504	1044.585866266805	781.4483198054745	-331.6075772392286	1037.2473307442779	774.1261075384792	-335.4705761259492	1026.511674756351	770.5913054520535	-337.838286859624	1039.9404344697687	819.0258669429851	-301.55287214470866	1052.856025071518	791.4142906735373	-313.83409687411324	1052.7326228952804	771.3476164275733	-321.9311714277813	1044.1799701730126	762.2053289558961	-326.18761503242126	1032.5795472460252	758.1877375287589	-328.58185632135877	1043.3642734017817	815.7749293497021	-296.9529392286262	1058.194228647077	788.1544759748083	-304.0237654400677	1058.7064477679564	770.0512915033011	-310.20087400507515	1050.7858569816797	760.9073065449674	-313.83903409949494	1040.0344913303638	756.9755053243632	-315.86867970346776	1046.2469357826878	812.9024859554294	-291.03594908645204	1061.9538303663358	785.7294821970714	-293.94450251804676	1063.2655267004322	770.3973665954258	-297.48649896413434	1057.9243116665084	763.3234174973257	-299.4608359942904	1048.6513261332627	759.6078124670515	-300.86778799595766	744.9407680220216	1181.1804552988062	-91.27633327586956	698.7925877615301	1107.0993023203152	-21.127462353987525	871.8659605804252	980.0523951636077	-123.48174363729919	1034.5652334811416	872.1853719407702	-221.31716039220981	1039.171719145718	878.1867664084469	-242.4490251391793	1064.1045255858871	878.5380331681002	-249.9141566826065	1083.8356110197012	876.0597164143026	-253.44192881896356	1102.3102088147496	871.6642573623508	-254.95342673050646	1046.9335040614217	868.6871985978551	-239.5848769236815	1079.595521780301	854.4938502534294	-256.16470415205646	1108.462681943586	846.1614055871796	-261.36255394419027	1125.3150269882094	845.1484563381119	-261.1885633242617	1138.5255445265175	847.1210344862781	-258.7474603697136	1052.528638239302	861.8486817840493	-234.1617426446267	1087.4108392374048	844.305523097916	-247.4016355583555	1119.5506390712271	834.3588063382019	-252.2962517038631	1140.1894830265574	832.7267555464612	-251.71334878837726	1154.7934659313405	834.6858170559211	-248.8609979685395	1055.607765999322	857.3431562786225	-229.96395530993507	1089.4240673546385	837.6036248003941	-238.35160821394703	1118.0368361769	828.0888365033119	-241.80183028247362	1138.263062044608	826.0657566480044	-240.80625740264338	1152.1453778130028	827.6950781658207	-237.91898261602952	1058.5281858449264	852.8475160481265	-224.1983639709043	1091.219898075314	831.84457546378	-228.53279335149176	1114.9202248039262	822.9932341004254	-229.98564408486828	1130.0546366816416	820.921520583412	-228.62579476140988	1142.5715622932792	822.0217819428265	-225.70345740497888
36	0.292	1081.203	893.81699	129.612	1161.5386885383207	896.848255195928	83.01576762759213	1064.7573439151781	497.7038015017785	1.950331350121077	1037.8394865839693	107.96136562236113	-27.085903390367086	923.748029335704	36.11351249082247	109.71335187854159	1015.0304431741829	865.6291365805288	189.7467718436411	913.6577323581926	474.20650295510757	298.5179581309087	807.6968332318464	69.83215269903833	434.55627193356145	660.2103503266621	13.297844056640612	328.9043400764865	1016.0272269528792	1010.5653332936772	79.3607911224754	954.4775700184118	1068.1366490793387	31.589939311119082	886.4500065374019	1121.3317629049377	-20.564494511271313	816.2454781724373	1161.0244851994403	-74.03549837375411	740.0730873159848	1205.1303688014452	-128.51574667256477	665.1537241638382	1241.1192317361338	-173.0089423015542	526.5279835781141	1319.4820382297714	-182.2183438515856	785.4355168460954	1198.2326059778752	-129.50078932312462	851.1234220161432	1210.1767231134177	-210.82718544499983	916.0785981300863	990.7591094836747	-246.6461869360756	1032.9184665597131	837.9304461533936	-294.10291169636037	1030.1736486696732	836.1184338641921	-315.27534850707616	1019.8138453195934	825.1701991273765	-328.51831482233825	1014.7333051413077	815.1824985646673	-335.8304982059448	1012.3234630414926	804.8343893443872	-340.29220089093496	1039.0686664974166	827.5347709896398	-310.88385320702434	1049.8992638565367	802.6446973393415	-327.22046079446886	1049.439973502473	785.0321255110848	-335.84576776646355	1042.1864737465075	777.7789161643095	-339.9906727409224	1031.4826667568227	774.2688603075165	-342.600188884138	1044.1157908861944	821.9592888157025	-304.9893564475295	1057.411897818414	794.6665586799251	-317.73603841587965	1057.5315615608863	774.7924395087074	-326.31379118200704	1049.078387928176	765.7272695241529	-330.91414921640575	1037.511295699073	761.7337594610838	-333.5748343959596	1047.5025023966869	818.6379197705226	-300.4266381047227	1062.6430593219663	791.2439763786655	-307.9439019753739	1063.3598915668479	773.2950392815608	-314.54738651793014	1055.531401997333	764.2182106220595	-318.5212373863868	1044.8095426571813	760.3056436424225	-320.8032712190055	1050.325614055619	815.6683636008639	-294.54787425972717	1066.2828549973922	788.645509482857	-297.88619207313764	1067.7457279127464	773.414717477791	-301.77925013994354	1062.4655779712098	766.3790366420707	-304.00309854078176	1053.215214478915	762.6742826268091	-305.6363245008269	745.1107377804599	1181.1939660506052	-91.51199511236125	698.3721312792554	1106.2309301482876	-21.99864669111964	872.3693837715516	980.2119888039163	-125.13726874003292	1034.6008820099385	871.8295328409204	-222.33039590005455	1039.5980447949971	878.2917007889517	-243.36336261881922	1064.8041806221263	878.9784111625976	-250.5206988310358	1084.7168081051868	876.7087266680344	-253.8639479741672	1103.33522285325	872.4658195126506	-255.2471457290275	1047.3801466251714	868.7571567094969	-240.62741576541748	1080.5682989128322	855.0686622279416	-257.23135301118344	1109.7160897249473	847.0218756175151	-262.28398861110577	1126.662315184342	846.1316423990335	-261.9046458462688	1139.8961670223102	848.1687849269505	-259.21592542944273	1052.9289549708744	861.8300079169246	-235.27688928789	1088.2993211193725	844.7313457323752	-248.57962423938642	1120.7374226536733	835.0829159234573	-253.32508685553805	1141.4857287344225	833.5924902882464	-252.49889066909995	1156.113403707328	835.619057979536	-249.37778156566523	1055.9628599694227	857.249583475382	-231.1316353237911	1090.1800566735608	837.8451565349735	-239.62660011953045	1119.043959597339	828.5759462196908	-242.95621406198666	1139.371048748381	826.6818087919884	-241.73093713571566	1153.2734084630802	828.370988538205	-238.59333242155049	1058.8086991233838	852.6482329346142	-225.41135826293004	1091.8253767139217	831.8896713033879	-229.87834055612075	1115.7111910811032	823.2110271007576	-231.24878041743008	1130.9116194452258	821.2217625016253	-229.7282392567245	1143.4419646791414	822.3683727713895	-226.5880867194598
